<svg width="100%" height="100%"><g transform="scale(1)"><text x="10" y="15" font-size="16" fill="black">Input Volume (+pad 1) (7x7x3)</text><text x="10" y="35" font-size="16" fill="black" style="font-family: courier;">x[:,:,0]</text><rect x="10" y="40" height="25" width="25" fill="#DDD" stroke="none" stroke-width="2" id="x_0_0_0" class="x"></rect><text x="15" y="55" font-size="16" fill="black">0</text><rect x="10" y="68" height="25" width="25" fill="#DDD" stroke="none" stroke-width="2" id="x_0_1_0" class="x"></rect><text x="15" y="83" font-size="16" fill="black">0</text><rect x="10" y="96" height="25" width="25" fill="#DDD" stroke="#00A" stroke-width="2" id="x_0_2_0" class="x"></rect><text x="15" y="111" font-size="16" fill="black">0</text><rect x="10" y="124" height="25" width="25" fill="#DDD" stroke="#00A" stroke-width="2" id="x_0_3_0" class="x"></rect><text x="15" y="139" font-size="16" fill="black">0</text><rect x="10" y="152" height="25" width="25" fill="#DDD" stroke="#00A" stroke-width="2" id="x_0_4_0" class="x"></rect><text x="15" y="167" font-size="16" fill="black">0</text><rect x="10" y="180" height="25" width="25" fill="#DDD" stroke="none" stroke-width="2" id="x_0_5_0" class="x"></rect><text x="15" y="195" font-size="16" fill="black">0</text><rect x="10" y="208" height="25" width="25" fill="#DDD" stroke="none" stroke-width="2" id="x_0_6_0" class="x"></rect><text x="15" y="223" font-size="16" fill="black">0</text><rect x="38" y="40" height="25" width="25" fill="#DDD" stroke="none" stroke-width="2" id="x_1_0_0" class="x"></rect><text x="43" y="55" font-size="16" fill="black">0</text><rect x="38" y="68" height="25" width="25" fill="#DDF" stroke="none" stroke-width="2" id="x_1_1_0" class="x"></rect><text x="43" y="83" font-size="16" fill="black">2</text><rect x="38" y="96" height="25" width="25" fill="#DDF" stroke="#00A" stroke-width="2" id="x_1_2_0" class="x"></rect><text x="43" y="111" font-size="16" fill="black">2</text><rect x="38" y="124" height="25" width="25" fill="#DDF" stroke="#00A" stroke-width="2" id="x_1_3_0" class="x"></rect><text x="43" y="139" font-size="16" fill="black">1</text><rect x="38" y="152" height="25" width="25" fill="#DDF" stroke="#00A" stroke-width="2" id="x_1_4_0" class="x"></rect><text x="43" y="167" font-size="16" fill="black">0</text><rect x="38" y="180" height="25" width="25" fill="#DDF" stroke="none" stroke-width="2" id="x_1_5_0" class="x"></rect><text x="43" y="195" font-size="16" fill="black">2</text><rect x="38" y="208" height="25" width="25" fill="#DDD" stroke="none" stroke-width="2" id="x_1_6_0" class="x"></rect><text x="43" y="223" font-size="16" fill="black">0</text><rect x="66" y="40" height="25" width="25" fill="#DDD" stroke="none" stroke-width="2" id="x_2_0_0" class="x"></rect><text x="71" y="55" font-size="16" fill="black">0</text><rect x="66" y="68" height="25" width="25" fill="#DDF" stroke="none" stroke-width="2" id="x_2_1_0" class="x"></rect><text x="71" y="83" font-size="16" fill="black">2</text><rect x="66" y="96" height="25" width="25" fill="#DDF" stroke="#00A" stroke-width="2" id="x_2_2_0" class="x"></rect><text x="71" y="111" font-size="16" fill="black">0</text><rect x="66" y="124" height="25" width="25" fill="#DDF" stroke="#00A" stroke-width="2" id="x_2_3_0" class="x"></rect><text x="71" y="139" font-size="16" fill="black">2</text><rect x="66" y="152" height="25" width="25" fill="#DDF" stroke="#00A" stroke-width="2" id="x_2_4_0" class="x"></rect><text x="71" y="167" font-size="16" fill="black">0</text><rect x="66" y="180" height="25" width="25" fill="#DDF" stroke="none" stroke-width="2" id="x_2_5_0" class="x"></rect><text x="71" y="195" font-size="16" fill="black">0</text><rect x="66" y="208" height="25" width="25" fill="#DDD" stroke="none" stroke-width="2" id="x_2_6_0" class="x"></rect><text x="71" y="223" font-size="16" fill="black">0</text><rect x="94" y="40" height="25" width="25" fill="#DDD" stroke="none" stroke-width="2" id="x_3_0_0" class="x"></rect><text x="99" y="55" font-size="16" fill="black">0</text><rect x="94" y="68" height="25" width="25" fill="#DDF" stroke="none" stroke-width="2" id="x_3_1_0" class="x"></rect><text x="99" y="83" font-size="16" fill="black">1</text><rect x="94" y="96" height="25" width="25" fill="#DDF" stroke="none" stroke-width="2" id="x_3_2_0" class="x"></rect><text x="99" y="111" font-size="16" fill="black">2</text><rect x="94" y="124" height="25" width="25" fill="#DDF" stroke="none" stroke-width="2" id="x_3_3_0" class="x"></rect><text x="99" y="139" font-size="16" fill="black">0</text><rect x="94" y="152" height="25" width="25" fill="#DDF" stroke="none" stroke-width="2" id="x_3_4_0" class="x"></rect><text x="99" y="167" font-size="16" fill="black">1</text><rect x="94" y="180" height="25" width="25" fill="#DDF" stroke="none" stroke-width="2" id="x_3_5_0" class="x"></rect><text x="99" y="195" font-size="16" fill="black">0</text><rect x="94" y="208" height="25" width="25" fill="#DDD" stroke="none" stroke-width="2" id="x_3_6_0" class="x"></rect><text x="99" y="223" font-size="16" fill="black">0</text><rect x="122" y="40" height="25" width="25" fill="#DDD" stroke="none" stroke-width="2" id="x_4_0_0" class="x"></rect><text x="127" y="55" font-size="16" fill="black">0</text><rect x="122" y="68" height="25" width="25" fill="#DDF" stroke="none" stroke-width="2" id="x_4_1_0" class="x"></rect><text x="127" y="83" font-size="16" fill="black">1</text><rect x="122" y="96" height="25" width="25" fill="#DDF" stroke="none" stroke-width="2" id="x_4_2_0" class="x"></rect><text x="127" y="111" font-size="16" fill="black">0</text><rect x="122" y="124" height="25" width="25" fill="#DDF" stroke="none" stroke-width="2" id="x_4_3_0" class="x"></rect><text x="127" y="139" font-size="16" fill="black">2</text><rect x="122" y="152" height="25" width="25" fill="#DDF" stroke="none" stroke-width="2" id="x_4_4_0" class="x"></rect><text x="127" y="167" font-size="16" fill="black">2</text><rect x="122" y="180" height="25" width="25" fill="#DDF" stroke="none" stroke-width="2" id="x_4_5_0" class="x"></rect><text x="127" y="195" font-size="16" fill="black">2</text><rect x="122" y="208" height="25" width="25" fill="#DDD" stroke="none" stroke-width="2" id="x_4_6_0" class="x"></rect><text x="127" y="223" font-size="16" fill="black">0</text><rect x="150" y="40" height="25" width="25" fill="#DDD" stroke="none" stroke-width="2" id="x_5_0_0" class="x"></rect><text x="155" y="55" font-size="16" fill="black">0</text><rect x="150" y="68" height="25" width="25" fill="#DDF" stroke="none" stroke-width="2" id="x_5_1_0" class="x"></rect><text x="155" y="83" font-size="16" fill="black">1</text><rect x="150" y="96" height="25" width="25" fill="#DDF" stroke="none" stroke-width="2" id="x_5_2_0" class="x"></rect><text x="155" y="111" font-size="16" fill="black">1</text><rect x="150" y="124" height="25" width="25" fill="#DDF" stroke="none" stroke-width="2" id="x_5_3_0" class="x"></rect><text x="155" y="139" font-size="16" fill="black">0</text><rect x="150" y="152" height="25" width="25" fill="#DDF" stroke="none" stroke-width="2" id="x_5_4_0" class="x"></rect><text x="155" y="167" font-size="16" fill="black">0</text><rect x="150" y="180" height="25" width="25" fill="#DDF" stroke="none" stroke-width="2" id="x_5_5_0" class="x"></rect><text x="155" y="195" font-size="16" fill="black">1</text><rect x="150" y="208" height="25" width="25" fill="#DDD" stroke="none" stroke-width="2" id="x_5_6_0" class="x"></rect><text x="155" y="223" font-size="16" fill="black">0</text><rect x="178" y="40" height="25" width="25" fill="#DDD" stroke="none" stroke-width="2" id="x_6_0_0" class="x"></rect><text x="183" y="55" font-size="16" fill="black">0</text><rect x="178" y="68" height="25" width="25" fill="#DDD" stroke="none" stroke-width="2" id="x_6_1_0" class="x"></rect><text x="183" y="83" font-size="16" fill="black">0</text><rect x="178" y="96" height="25" width="25" fill="#DDD" stroke="none" stroke-width="2" id="x_6_2_0" class="x"></rect><text x="183" y="111" font-size="16" fill="black">0</text><rect x="178" y="124" height="25" width="25" fill="#DDD" stroke="none" stroke-width="2" id="x_6_3_0" class="x"></rect><text x="183" y="139" font-size="16" fill="black">0</text><rect x="178" y="152" height="25" width="25" fill="#DDD" stroke="none" stroke-width="2" id="x_6_4_0" class="x"></rect><text x="183" y="167" font-size="16" fill="black">0</text><rect x="178" y="180" height="25" width="25" fill="#DDD" stroke="none" stroke-width="2" id="x_6_5_0" class="x"></rect><text x="183" y="195" font-size="16" fill="black">0</text><rect x="178" y="208" height="25" width="25" fill="#DDD" stroke="none" stroke-width="2" id="x_6_6_0" class="x"></rect><text x="183" y="223" font-size="16" fill="black">0</text><text x="10" y="251" font-size="16" fill="black" style="font-family: courier;">x[:,:,1]</text><rect x="10" y="256" height="25" width="25" fill="#DDD" stroke="none" stroke-width="2" id="x_0_0_1" class="x"></rect><text x="15" y="271" font-size="16" fill="black">0</text><rect x="10" y="284" height="25" width="25" fill="#DDD" stroke="none" stroke-width="2" id="x_0_1_1" class="x"></rect><text x="15" y="299" font-size="16" fill="black">0</text><rect x="10" y="312" height="25" width="25" fill="#DDD" stroke="#00A" stroke-width="2" id="x_0_2_1" class="x"></rect><text x="15" y="327" font-size="16" fill="black">0</text><rect x="10" y="340" height="25" width="25" fill="#DDD" stroke="#00A" stroke-width="2" id="x_0_3_1" class="x"></rect><text x="15" y="355" font-size="16" fill="black">0</text><rect x="10" y="368" height="25" width="25" fill="#DDD" stroke="#00A" stroke-width="2" id="x_0_4_1" class="x"></rect><text x="15" y="383" font-size="16" fill="black">0</text><rect x="10" y="396" height="25" width="25" fill="#DDD" stroke="none" stroke-width="2" id="x_0_5_1" class="x"></rect><text x="15" y="411" font-size="16" fill="black">0</text><rect x="10" y="424" height="25" width="25" fill="#DDD" stroke="none" stroke-width="2" id="x_0_6_1" class="x"></rect><text x="15" y="439" font-size="16" fill="black">0</text><rect x="38" y="256" height="25" width="25" fill="#DDD" stroke="none" stroke-width="2" id="x_1_0_1" class="x"></rect><text x="43" y="271" font-size="16" fill="black">0</text><rect x="38" y="284" height="25" width="25" fill="#DDF" stroke="none" stroke-width="2" id="x_1_1_1" class="x"></rect><text x="43" y="299" font-size="16" fill="black">1</text><rect x="38" y="312" height="25" width="25" fill="#DDF" stroke="#00A" stroke-width="2" id="x_1_2_1" class="x"></rect><text x="43" y="327" font-size="16" fill="black">0</text><rect x="38" y="340" height="25" width="25" fill="#DDF" stroke="#00A" stroke-width="2" id="x_1_3_1" class="x"></rect><text x="43" y="355" font-size="16" fill="black">0</text><rect x="38" y="368" height="25" width="25" fill="#DDF" stroke="#00A" stroke-width="2" id="x_1_4_1" class="x"></rect><text x="43" y="383" font-size="16" fill="black">1</text><rect x="38" y="396" height="25" width="25" fill="#DDF" stroke="none" stroke-width="2" id="x_1_5_1" class="x"></rect><text x="43" y="411" font-size="16" fill="black">0</text><rect x="38" y="424" height="25" width="25" fill="#DDD" stroke="none" stroke-width="2" id="x_1_6_1" class="x"></rect><text x="43" y="439" font-size="16" fill="black">0</text><rect x="66" y="256" height="25" width="25" fill="#DDD" stroke="none" stroke-width="2" id="x_2_0_1" class="x"></rect><text x="71" y="271" font-size="16" fill="black">0</text><rect x="66" y="284" height="25" width="25" fill="#DDF" stroke="none" stroke-width="2" id="x_2_1_1" class="x"></rect><text x="71" y="299" font-size="16" fill="black">1</text><rect x="66" y="312" height="25" width="25" fill="#DDF" stroke="#00A" stroke-width="2" id="x_2_2_1" class="x"></rect><text x="71" y="327" font-size="16" fill="black">1</text><rect x="66" y="340" height="25" width="25" fill="#DDF" stroke="#00A" stroke-width="2" id="x_2_3_1" class="x"></rect><text x="71" y="355" font-size="16" fill="black">0</text><rect x="66" y="368" height="25" width="25" fill="#DDF" stroke="#00A" stroke-width="2" id="x_2_4_1" class="x"></rect><text x="71" y="383" font-size="16" fill="black">0</text><rect x="66" y="396" height="25" width="25" fill="#DDF" stroke="none" stroke-width="2" id="x_2_5_1" class="x"></rect><text x="71" y="411" font-size="16" fill="black">0</text><rect x="66" y="424" height="25" width="25" fill="#DDD" stroke="none" stroke-width="2" id="x_2_6_1" class="x"></rect><text x="71" y="439" font-size="16" fill="black">0</text><rect x="94" y="256" height="25" width="25" fill="#DDD" stroke="none" stroke-width="2" id="x_3_0_1" class="x"></rect><text x="99" y="271" font-size="16" fill="black">0</text><rect x="94" y="284" height="25" width="25" fill="#DDF" stroke="none" stroke-width="2" id="x_3_1_1" class="x"></rect><text x="99" y="299" font-size="16" fill="black">2</text><rect x="94" y="312" height="25" width="25" fill="#DDF" stroke="none" stroke-width="2" id="x_3_2_1" class="x"></rect><text x="99" y="327" font-size="16" fill="black">1</text><rect x="94" y="340" height="25" width="25" fill="#DDF" stroke="none" stroke-width="2" id="x_3_3_1" class="x"></rect><text x="99" y="355" font-size="16" fill="black">1</text><rect x="94" y="368" height="25" width="25" fill="#DDF" stroke="none" stroke-width="2" id="x_3_4_1" class="x"></rect><text x="99" y="383" font-size="16" fill="black">0</text><rect x="94" y="396" height="25" width="25" fill="#DDF" stroke="none" stroke-width="2" id="x_3_5_1" class="x"></rect><text x="99" y="411" font-size="16" fill="black">1</text><rect x="94" y="424" height="25" width="25" fill="#DDD" stroke="none" stroke-width="2" id="x_3_6_1" class="x"></rect><text x="99" y="439" font-size="16" fill="black">0</text><rect x="122" y="256" height="25" width="25" fill="#DDD" stroke="none" stroke-width="2" id="x_4_0_1" class="x"></rect><text x="127" y="271" font-size="16" fill="black">0</text><rect x="122" y="284" height="25" width="25" fill="#DDF" stroke="none" stroke-width="2" id="x_4_1_1" class="x"></rect><text x="127" y="299" font-size="16" fill="black">2</text><rect x="122" y="312" height="25" width="25" fill="#DDF" stroke="none" stroke-width="2" id="x_4_2_1" class="x"></rect><text x="127" y="327" font-size="16" fill="black">0</text><rect x="122" y="340" height="25" width="25" fill="#DDF" stroke="none" stroke-width="2" id="x_4_3_1" class="x"></rect><text x="127" y="355" font-size="16" fill="black">0</text><rect x="122" y="368" height="25" width="25" fill="#DDF" stroke="none" stroke-width="2" id="x_4_4_1" class="x"></rect><text x="127" y="383" font-size="16" fill="black">1</text><rect x="122" y="396" height="25" width="25" fill="#DDF" stroke="none" stroke-width="2" id="x_4_5_1" class="x"></rect><text x="127" y="411" font-size="16" fill="black">2</text><rect x="122" y="424" height="25" width="25" fill="#DDD" stroke="none" stroke-width="2" id="x_4_6_1" class="x"></rect><text x="127" y="439" font-size="16" fill="black">0</text><rect x="150" y="256" height="25" width="25" fill="#DDD" stroke="none" stroke-width="2" id="x_5_0_1" class="x"></rect><text x="155" y="271" font-size="16" fill="black">0</text><rect x="150" y="284" height="25" width="25" fill="#DDF" stroke="none" stroke-width="2" id="x_5_1_1" class="x"></rect><text x="155" y="299" font-size="16" fill="black">2</text><rect x="150" y="312" height="25" width="25" fill="#DDF" stroke="none" stroke-width="2" id="x_5_2_1" class="x"></rect><text x="155" y="327" font-size="16" fill="black">1</text><rect x="150" y="340" height="25" width="25" fill="#DDF" stroke="none" stroke-width="2" id="x_5_3_1" class="x"></rect><text x="155" y="355" font-size="16" fill="black">1</text><rect x="150" y="368" height="25" width="25" fill="#DDF" stroke="none" stroke-width="2" id="x_5_4_1" class="x"></rect><text x="155" y="383" font-size="16" fill="black">1</text><rect x="150" y="396" height="25" width="25" fill="#DDF" stroke="none" stroke-width="2" id="x_5_5_1" class="x"></rect><text x="155" y="411" font-size="16" fill="black">1</text><rect x="150" y="424" height="25" width="25" fill="#DDD" stroke="none" stroke-width="2" id="x_5_6_1" class="x"></rect><text x="155" y="439" font-size="16" fill="black">0</text><rect x="178" y="256" height="25" width="25" fill="#DDD" stroke="none" stroke-width="2" id="x_6_0_1" class="x"></rect><text x="183" y="271" font-size="16" fill="black">0</text><rect x="178" y="284" height="25" width="25" fill="#DDD" stroke="none" stroke-width="2" id="x_6_1_1" class="x"></rect><text x="183" y="299" font-size="16" fill="black">0</text><rect x="178" y="312" height="25" width="25" fill="#DDD" stroke="none" stroke-width="2" id="x_6_2_1" class="x"></rect><text x="183" y="327" font-size="16" fill="black">0</text><rect x="178" y="340" height="25" width="25" fill="#DDD" stroke="none" stroke-width="2" id="x_6_3_1" class="x"></rect><text x="183" y="355" font-size="16" fill="black">0</text><rect x="178" y="368" height="25" width="25" fill="#DDD" stroke="none" stroke-width="2" id="x_6_4_1" class="x"></rect><text x="183" y="383" font-size="16" fill="black">0</text><rect x="178" y="396" height="25" width="25" fill="#DDD" stroke="none" stroke-width="2" id="x_6_5_1" class="x"></rect><text x="183" y="411" font-size="16" fill="black">0</text><rect x="178" y="424" height="25" width="25" fill="#DDD" stroke="none" stroke-width="2" id="x_6_6_1" class="x"></rect><text x="183" y="439" font-size="16" fill="black">0</text><text x="10" y="467" font-size="16" fill="black" style="font-family: courier;">x[:,:,2]</text><rect x="10" y="472" height="25" width="25" fill="#DDD" stroke="none" stroke-width="2" id="x_0_0_2" class="x"></rect><text x="15" y="487" font-size="16" fill="black">0</text><rect x="10" y="500" height="25" width="25" fill="#DDD" stroke="none" stroke-width="2" id="x_0_1_2" class="x"></rect><text x="15" y="515" font-size="16" fill="black">0</text><rect x="10" y="528" height="25" width="25" fill="#DDD" stroke="#00A" stroke-width="2" id="x_0_2_2" class="x"></rect><text x="15" y="543" font-size="16" fill="black">0</text><rect x="10" y="556" height="25" width="25" fill="#DDD" stroke="#00A" stroke-width="2" id="x_0_3_2" class="x"></rect><text x="15" y="571" font-size="16" fill="black">0</text><rect x="10" y="584" height="25" width="25" fill="#DDD" stroke="#00A" stroke-width="2" id="x_0_4_2" class="x"></rect><text x="15" y="599" font-size="16" fill="black">0</text><rect x="10" y="612" height="25" width="25" fill="#DDD" stroke="none" stroke-width="2" id="x_0_5_2" class="x"></rect><text x="15" y="627" font-size="16" fill="black">0</text><rect x="10" y="640" height="25" width="25" fill="#DDD" stroke="none" stroke-width="2" id="x_0_6_2" class="x"></rect><text x="15" y="655" font-size="16" fill="black">0</text><rect x="38" y="472" height="25" width="25" fill="#DDD" stroke="none" stroke-width="2" id="x_1_0_2" class="x"></rect><text x="43" y="487" font-size="16" fill="black">0</text><rect x="38" y="500" height="25" width="25" fill="#DDF" stroke="none" stroke-width="2" id="x_1_1_2" class="x"></rect><text x="43" y="515" font-size="16" fill="black">0</text><rect x="38" y="528" height="25" width="25" fill="#DDF" stroke="#00A" stroke-width="2" id="x_1_2_2" class="x"></rect><text x="43" y="543" font-size="16" fill="black">0</text><rect x="38" y="556" height="25" width="25" fill="#DDF" stroke="#00A" stroke-width="2" id="x_1_3_2" class="x"></rect><text x="43" y="571" font-size="16" fill="black">0</text><rect x="38" y="584" height="25" width="25" fill="#DDF" stroke="#00A" stroke-width="2" id="x_1_4_2" class="x"></rect><text x="43" y="599" font-size="16" fill="black">1</text><rect x="38" y="612" height="25" width="25" fill="#DDF" stroke="none" stroke-width="2" id="x_1_5_2" class="x"></rect><text x="43" y="627" font-size="16" fill="black">0</text><rect x="38" y="640" height="25" width="25" fill="#DDD" stroke="none" stroke-width="2" id="x_1_6_2" class="x"></rect><text x="43" y="655" font-size="16" fill="black">0</text><rect x="66" y="472" height="25" width="25" fill="#DDD" stroke="none" stroke-width="2" id="x_2_0_2" class="x"></rect><text x="71" y="487" font-size="16" fill="black">0</text><rect x="66" y="500" height="25" width="25" fill="#DDF" stroke="none" stroke-width="2" id="x_2_1_2" class="x"></rect><text x="71" y="515" font-size="16" fill="black">0</text><rect x="66" y="528" height="25" width="25" fill="#DDF" stroke="#00A" stroke-width="2" id="x_2_2_2" class="x"></rect><text x="71" y="543" font-size="16" fill="black">1</text><rect x="66" y="556" height="25" width="25" fill="#DDF" stroke="#00A" stroke-width="2" id="x_2_3_2" class="x"></rect><text x="71" y="571" font-size="16" fill="black">2</text><rect x="66" y="584" height="25" width="25" fill="#DDF" stroke="#00A" stroke-width="2" id="x_2_4_2" class="x"></rect><text x="71" y="599" font-size="16" fill="black">1</text><rect x="66" y="612" height="25" width="25" fill="#DDF" stroke="none" stroke-width="2" id="x_2_5_2" class="x"></rect><text x="71" y="627" font-size="16" fill="black">2</text><rect x="66" y="640" height="25" width="25" fill="#DDD" stroke="none" stroke-width="2" id="x_2_6_2" class="x"></rect><text x="71" y="655" font-size="16" fill="black">0</text><rect x="94" y="472" height="25" width="25" fill="#DDD" stroke="none" stroke-width="2" id="x_3_0_2" class="x"></rect><text x="99" y="487" font-size="16" fill="black">0</text><rect x="94" y="500" height="25" width="25" fill="#DDF" stroke="none" stroke-width="2" id="x_3_1_2" class="x"></rect><text x="99" y="515" font-size="16" fill="black">1</text><rect x="94" y="528" height="25" width="25" fill="#DDF" stroke="none" stroke-width="2" id="x_3_2_2" class="x"></rect><text x="99" y="543" font-size="16" fill="black">0</text><rect x="94" y="556" height="25" width="25" fill="#DDF" stroke="none" stroke-width="2" id="x_3_3_2" class="x"></rect><text x="99" y="571" font-size="16" fill="black">1</text><rect x="94" y="584" height="25" width="25" fill="#DDF" stroke="none" stroke-width="2" id="x_3_4_2" class="x"></rect><text x="99" y="599" font-size="16" fill="black">1</text><rect x="94" y="612" height="25" width="25" fill="#DDF" stroke="none" stroke-width="2" id="x_3_5_2" class="x"></rect><text x="99" y="627" font-size="16" fill="black">0</text><rect x="94" y="640" height="25" width="25" fill="#DDD" stroke="none" stroke-width="2" id="x_3_6_2" class="x"></rect><text x="99" y="655" font-size="16" fill="black">0</text><rect x="122" y="472" height="25" width="25" fill="#DDD" stroke="none" stroke-width="2" id="x_4_0_2" class="x"></rect><text x="127" y="487" font-size="16" fill="black">0</text><rect x="122" y="500" height="25" width="25" fill="#DDF" stroke="none" stroke-width="2" id="x_4_1_2" class="x"></rect><text x="127" y="515" font-size="16" fill="black">2</text><rect x="122" y="528" height="25" width="25" fill="#DDF" stroke="none" stroke-width="2" id="x_4_2_2" class="x"></rect><text x="127" y="543" font-size="16" fill="black">0</text><rect x="122" y="556" height="25" width="25" fill="#DDF" stroke="none" stroke-width="2" id="x_4_3_2" class="x"></rect><text x="127" y="571" font-size="16" fill="black">2</text><rect x="122" y="584" height="25" width="25" fill="#DDF" stroke="none" stroke-width="2" id="x_4_4_2" class="x"></rect><text x="127" y="599" font-size="16" fill="black">0</text><rect x="122" y="612" height="25" width="25" fill="#DDF" stroke="none" stroke-width="2" id="x_4_5_2" class="x"></rect><text x="127" y="627" font-size="16" fill="black">1</text><rect x="122" y="640" height="25" width="25" fill="#DDD" stroke="none" stroke-width="2" id="x_4_6_2" class="x"></rect><text x="127" y="655" font-size="16" fill="black">0</text><rect x="150" y="472" height="25" width="25" fill="#DDD" stroke="none" stroke-width="2" id="x_5_0_2" class="x"></rect><text x="155" y="487" font-size="16" fill="black">0</text><rect x="150" y="500" height="25" width="25" fill="#DDF" stroke="none" stroke-width="2" id="x_5_1_2" class="x"></rect><text x="155" y="515" font-size="16" fill="black">0</text><rect x="150" y="528" height="25" width="25" fill="#DDF" stroke="none" stroke-width="2" id="x_5_2_2" class="x"></rect><text x="155" y="543" font-size="16" fill="black">0</text><rect x="150" y="556" height="25" width="25" fill="#DDF" stroke="none" stroke-width="2" id="x_5_3_2" class="x"></rect><text x="155" y="571" font-size="16" fill="black">0</text><rect x="150" y="584" height="25" width="25" fill="#DDF" stroke="none" stroke-width="2" id="x_5_4_2" class="x"></rect><text x="155" y="599" font-size="16" fill="black">2</text><rect x="150" y="612" height="25" width="25" fill="#DDF" stroke="none" stroke-width="2" id="x_5_5_2" class="x"></rect><text x="155" y="627" font-size="16" fill="black">2</text><rect x="150" y="640" height="25" width="25" fill="#DDD" stroke="none" stroke-width="2" id="x_5_6_2" class="x"></rect><text x="155" y="655" font-size="16" fill="black">0</text><rect x="178" y="472" height="25" width="25" fill="#DDD" stroke="none" stroke-width="2" id="x_6_0_2" class="x"></rect><text x="183" y="487" font-size="16" fill="black">0</text><rect x="178" y="500" height="25" width="25" fill="#DDD" stroke="none" stroke-width="2" id="x_6_1_2" class="x"></rect><text x="183" y="515" font-size="16" fill="black">0</text><rect x="178" y="528" height="25" width="25" fill="#DDD" stroke="none" stroke-width="2" id="x_6_2_2" class="x"></rect><text x="183" y="543" font-size="16" fill="black">0</text><rect x="178" y="556" height="25" width="25" fill="#DDD" stroke="none" stroke-width="2" id="x_6_3_2" class="x"></rect><text x="183" y="571" font-size="16" fill="black">0</text><rect x="178" y="584" height="25" width="25" fill="#DDD" stroke="none" stroke-width="2" id="x_6_4_2" class="x"></rect><text x="183" y="599" font-size="16" fill="black">0</text><rect x="178" y="612" height="25" width="25" fill="#DDD" stroke="none" stroke-width="2" id="x_6_5_2" class="x"></rect><text x="183" y="627" font-size="16" fill="black">0</text><rect x="178" y="640" height="25" width="25" fill="#DDD" stroke="none" stroke-width="2" id="x_6_6_2" class="x"></rect><text x="183" y="655" font-size="16" fill="black">0</text><text x="270" y="15" font-size="16" fill="black">Filter W0 (3x3x3)</text><text x="270" y="35" font-size="16" fill="black" style="font-family: courier;">w0[:,:,0]</text><rect x="270" y="40" height="25" width="25" fill="#FDD" stroke="none" stroke-width="2" id="w0_0_0_0" class="w0"></rect><text x="275" y="55" font-size="16" fill="black">-1</text><rect x="270" y="68" height="25" width="25" fill="#FDD" stroke="none" stroke-width="2" id="w0_0_1_0" class="w0"></rect><text x="275" y="83" font-size="16" fill="black">-1</text><rect x="270" y="96" height="25" width="25" fill="#FDD" stroke="none" stroke-width="2" id="w0_0_2_0" class="w0"></rect><text x="275" y="111" font-size="16" fill="black">-1</text><rect x="298" y="40" height="25" width="25" fill="#FDD" stroke="none" stroke-width="2" id="w0_1_0_0" class="w0"></rect><text x="303" y="55" font-size="16" fill="black">-1</text><rect x="298" y="68" height="25" width="25" fill="#FDD" stroke="none" stroke-width="2" id="w0_1_1_0" class="w0"></rect><text x="303" y="83" font-size="16" fill="black">1</text><rect x="298" y="96" height="25" width="25" fill="#FDD" stroke="none" stroke-width="2" id="w0_1_2_0" class="w0"></rect><text x="303" y="111" font-size="16" fill="black">-1</text><rect x="326" y="40" height="25" width="25" fill="#FDD" stroke="none" stroke-width="2" id="w0_2_0_0" class="w0"></rect><text x="331" y="55" font-size="16" fill="black">1</text><rect x="326" y="68" height="25" width="25" fill="#FDD" stroke="none" stroke-width="2" id="w0_2_1_0" class="w0"></rect><text x="331" y="83" font-size="16" fill="black">0</text><rect x="326" y="96" height="25" width="25" fill="#FDD" stroke="none" stroke-width="2" id="w0_2_2_0" class="w0"></rect><text x="331" y="111" font-size="16" fill="black">0</text><text x="270" y="139" font-size="16" fill="black" style="font-family: courier;">w0[:,:,1]</text><rect x="270" y="144" height="25" width="25" fill="#FDD" stroke="none" stroke-width="2" id="w0_0_0_1" class="w0"></rect><text x="275" y="159" font-size="16" fill="black">1</text><rect x="270" y="172" height="25" width="25" fill="#FDD" stroke="none" stroke-width="2" id="w0_0_1_1" class="w0"></rect><text x="275" y="187" font-size="16" fill="black">-1</text><rect x="270" y="200" height="25" width="25" fill="#FDD" stroke="none" stroke-width="2" id="w0_0_2_1" class="w0"></rect><text x="275" y="215" font-size="16" fill="black">-1</text><rect x="298" y="144" height="25" width="25" fill="#FDD" stroke="none" stroke-width="2" id="w0_1_0_1" class="w0"></rect><text x="303" y="159" font-size="16" fill="black">1</text><rect x="298" y="172" height="25" width="25" fill="#FDD" stroke="none" stroke-width="2" id="w0_1_1_1" class="w0"></rect><text x="303" y="187" font-size="16" fill="black">-1</text><rect x="298" y="200" height="25" width="25" fill="#FDD" stroke="none" stroke-width="2" id="w0_1_2_1" class="w0"></rect><text x="303" y="215" font-size="16" fill="black">1</text><rect x="326" y="144" height="25" width="25" fill="#FDD" stroke="none" stroke-width="2" id="w0_2_0_1" class="w0"></rect><text x="331" y="159" font-size="16" fill="black">0</text><rect x="326" y="172" height="25" width="25" fill="#FDD" stroke="none" stroke-width="2" id="w0_2_1_1" class="w0"></rect><text x="331" y="187" font-size="16" fill="black">1</text><rect x="326" y="200" height="25" width="25" fill="#FDD" stroke="none" stroke-width="2" id="w0_2_2_1" class="w0"></rect><text x="331" y="215" font-size="16" fill="black">-1</text><text x="270" y="243" font-size="16" fill="black" style="font-family: courier;">w0[:,:,2]</text><rect x="270" y="248" height="25" width="25" fill="#FDD" stroke="none" stroke-width="2" id="w0_0_0_2" class="w0"></rect><text x="275" y="263" font-size="16" fill="black">0</text><rect x="270" y="276" height="25" width="25" fill="#FDD" stroke="none" stroke-width="2" id="w0_0_1_2" class="w0"></rect><text x="275" y="291" font-size="16" fill="black">-1</text><rect x="270" y="304" height="25" width="25" fill="#FDD" stroke="none" stroke-width="2" id="w0_0_2_2" class="w0"></rect><text x="275" y="319" font-size="16" fill="black">-1</text><rect x="298" y="248" height="25" width="25" fill="#FDD" stroke="none" stroke-width="2" id="w0_1_0_2" class="w0"></rect><text x="303" y="263" font-size="16" fill="black">1</text><rect x="298" y="276" height="25" width="25" fill="#FDD" stroke="none" stroke-width="2" id="w0_1_1_2" class="w0"></rect><text x="303" y="291" font-size="16" fill="black">-1</text><rect x="298" y="304" height="25" width="25" fill="#FDD" stroke="none" stroke-width="2" id="w0_1_2_2" class="w0"></rect><text x="303" y="319" font-size="16" fill="black">1</text><rect x="326" y="248" height="25" width="25" fill="#FDD" stroke="none" stroke-width="2" id="w0_2_0_2" class="w0"></rect><text x="331" y="263" font-size="16" fill="black">1</text><rect x="326" y="276" height="25" width="25" fill="#FDD" stroke="none" stroke-width="2" id="w0_2_1_2" class="w0"></rect><text x="331" y="291" font-size="16" fill="black">-1</text><rect x="326" y="304" height="25" width="25" fill="#FDD" stroke="none" stroke-width="2" id="w0_2_2_2" class="w0"></rect><text x="331" y="319" font-size="16" fill="black">-1</text><text x="270" y="365" font-size="16" fill="black">Bias b0 (1x1x1)</text><text x="270" y="385" font-size="16" fill="black" style="font-family: courier;">b0[:,:,0]</text><rect x="270" y="390" height="25" width="25" fill="#FDD" stroke="none" stroke-width="2" id="b0_0_0_0" class="b0"></rect><text x="275" y="405" font-size="16" fill="black">1</text><text x="440" y="15" font-size="16" fill="black">Filter W1 (3x3x3)</text><text x="440" y="35" font-size="16" fill="black" style="font-family: courier;">w1[:,:,0]</text><rect x="440" y="40" height="25" width="25" fill="#FDD" stroke="#A00" stroke-width="2" id="w1_0_0_0" class="w1"></rect><text x="445" y="55" font-size="16" fill="black">1</text><rect x="440" y="68" height="25" width="25" fill="#FDD" stroke="#A00" stroke-width="2" id="w1_0_1_0" class="w1"></rect><text x="445" y="83" font-size="16" fill="black">0</text><rect x="440" y="96" height="25" width="25" fill="#FDD" stroke="#A00" stroke-width="2" id="w1_0_2_0" class="w1"></rect><text x="445" y="111" font-size="16" fill="black">1</text><rect x="468" y="40" height="25" width="25" fill="#FDD" stroke="#A00" stroke-width="2" id="w1_1_0_0" class="w1"></rect><text x="473" y="55" font-size="16" fill="black">-1</text><rect x="468" y="68" height="25" width="25" fill="#FDD" stroke="#A00" stroke-width="2" id="w1_1_1_0" class="w1"></rect><text x="473" y="83" font-size="16" fill="black">-1</text><rect x="468" y="96" height="25" width="25" fill="#FDD" stroke="#A00" stroke-width="2" id="w1_1_2_0" class="w1"></rect><text x="473" y="111" font-size="16" fill="black">-1</text><rect x="496" y="40" height="25" width="25" fill="#FDD" stroke="#A00" stroke-width="2" id="w1_2_0_0" class="w1"></rect><text x="501" y="55" font-size="16" fill="black">0</text><rect x="496" y="68" height="25" width="25" fill="#FDD" stroke="#A00" stroke-width="2" id="w1_2_1_0" class="w1"></rect><text x="501" y="83" font-size="16" fill="black">-1</text><rect x="496" y="96" height="25" width="25" fill="#FDD" stroke="#A00" stroke-width="2" id="w1_2_2_0" class="w1"></rect><text x="501" y="111" font-size="16" fill="black">1</text><text x="440" y="139" font-size="16" fill="black" style="font-family: courier;">w1[:,:,1]</text><rect x="440" y="144" height="25" width="25" fill="#FDD" stroke="#A00" stroke-width="2" id="w1_0_0_1" class="w1"></rect><text x="445" y="159" font-size="16" fill="black">1</text><rect x="440" y="172" height="25" width="25" fill="#FDD" stroke="#A00" stroke-width="2" id="w1_0_1_1" class="w1"></rect><text x="445" y="187" font-size="16" fill="black">-1</text><rect x="440" y="200" height="25" width="25" fill="#FDD" stroke="#A00" stroke-width="2" id="w1_0_2_1" class="w1"></rect><text x="445" y="215" font-size="16" fill="black">0</text><rect x="468" y="144" height="25" width="25" fill="#FDD" stroke="#A00" stroke-width="2" id="w1_1_0_1" class="w1"></rect><text x="473" y="159" font-size="16" fill="black">-1</text><rect x="468" y="172" height="25" width="25" fill="#FDD" stroke="#A00" stroke-width="2" id="w1_1_1_1" class="w1"></rect><text x="473" y="187" font-size="16" fill="black">1</text><rect x="468" y="200" height="25" width="25" fill="#FDD" stroke="#A00" stroke-width="2" id="w1_1_2_1" class="w1"></rect><text x="473" y="215" font-size="16" fill="black">0</text><rect x="496" y="144" height="25" width="25" fill="#FDD" stroke="#A00" stroke-width="2" id="w1_2_0_1" class="w1"></rect><text x="501" y="159" font-size="16" fill="black">-1</text><rect x="496" y="172" height="25" width="25" fill="#FDD" stroke="#A00" stroke-width="2" id="w1_2_1_1" class="w1"></rect><text x="501" y="187" font-size="16" fill="black">-1</text><rect x="496" y="200" height="25" width="25" fill="#FDD" stroke="#A00" stroke-width="2" id="w1_2_2_1" class="w1"></rect><text x="501" y="215" font-size="16" fill="black">1</text><text x="440" y="243" font-size="16" fill="black" style="font-family: courier;">w1[:,:,2]</text><rect x="440" y="248" height="25" width="25" fill="#FDD" stroke="#A00" stroke-width="2" id="w1_0_0_2" class="w1"></rect><text x="445" y="263" font-size="16" fill="black">-1</text><rect x="440" y="276" height="25" width="25" fill="#FDD" stroke="#A00" stroke-width="2" id="w1_0_1_2" class="w1"></rect><text x="445" y="291" font-size="16" fill="black">0</text><rect x="440" y="304" height="25" width="25" fill="#FDD" stroke="#A00" stroke-width="2" id="w1_0_2_2" class="w1"></rect><text x="445" y="319" font-size="16" fill="black">-1</text><rect x="468" y="248" height="25" width="25" fill="#FDD" stroke="#A00" stroke-width="2" id="w1_1_0_2" class="w1"></rect><text x="473" y="263" font-size="16" fill="black">0</text><rect x="468" y="276" height="25" width="25" fill="#FDD" stroke="#A00" stroke-width="2" id="w1_1_1_2" class="w1"></rect><text x="473" y="291" font-size="16" fill="black">1</text><rect x="468" y="304" height="25" width="25" fill="#FDD" stroke="#A00" stroke-width="2" id="w1_1_2_2" class="w1"></rect><text x="473" y="319" font-size="16" fill="black">-1</text><rect x="496" y="248" height="25" width="25" fill="#FDD" stroke="#A00" stroke-width="2" id="w1_2_0_2" class="w1"></rect><text x="501" y="263" font-size="16" fill="black">-1</text><rect x="496" y="276" height="25" width="25" fill="#FDD" stroke="#A00" stroke-width="2" id="w1_2_1_2" class="w1"></rect><text x="501" y="291" font-size="16" fill="black">0</text><rect x="496" y="304" height="25" width="25" fill="#FDD" stroke="#A00" stroke-width="2" id="w1_2_2_2" class="w1"></rect><text x="501" y="319" font-size="16" fill="black">1</text><text x="440" y="365" font-size="16" fill="black">Bias b1 (1x1x1)</text><text x="440" y="385" font-size="16" fill="black" style="font-family: courier;">b1[:,:,0]</text><rect x="440" y="390" height="25" width="25" fill="#FDD" stroke="#A00" stroke-width="2" id="b1_0_0_0" class="b1"></rect><text x="445" y="405" font-size="16" fill="black">0</text><text x="600" y="15" font-size="16" fill="black">Output Volume (3x3x2)</text><text x="600" y="35" font-size="16" fill="black" style="font-family: courier;">o[:,:,0]</text><rect x="600" y="40" height="25" width="25" fill="#DFD" stroke="none" stroke-width="2" id="o_0_0_0" class="o"></rect><text x="605" y="55" font-size="16" fill="black">-1</text><rect x="600" y="68" height="25" width="25" fill="#DFD" stroke="none" stroke-width="2" id="o_0_1_0" class="o"></rect><text x="605" y="83" font-size="16" fill="black">0</text><rect x="600" y="96" height="25" width="25" fill="#DFD" stroke="none" stroke-width="2" id="o_0_2_0" class="o"></rect><text x="605" y="111" font-size="16" fill="black">4</text><rect x="628" y="40" height="25" width="25" fill="#DFD" stroke="none" stroke-width="2" id="o_1_0_0" class="o"></rect><text x="633" y="55" font-size="16" fill="black">-7</text><rect x="628" y="68" height="25" width="25" fill="#DFD" stroke="none" stroke-width="2" id="o_1_1_0" class="o"></rect><text x="633" y="83" font-size="16" fill="black">-9</text><rect x="628" y="96" height="25" width="25" fill="#DFD" stroke="none" stroke-width="2" id="o_1_2_0" class="o"></rect><text x="633" y="111" font-size="16" fill="black">1</text><rect x="656" y="40" height="25" width="25" fill="#DFD" stroke="none" stroke-width="2" id="o_2_0_0" class="o"></rect><text x="661" y="55" font-size="16" fill="black">-5</text><rect x="656" y="68" height="25" width="25" fill="#DFD" stroke="none" stroke-width="2" id="o_2_1_0" class="o"></rect><text x="661" y="83" font-size="16" fill="black">-4</text><rect x="656" y="96" height="25" width="25" fill="#DFD" stroke="none" stroke-width="2" id="o_2_2_0" class="o"></rect><text x="661" y="111" font-size="16" fill="black">-4</text><text x="600" y="139" font-size="16" fill="black" style="font-family: courier;">o[:,:,1]</text><rect x="600" y="144" height="25" width="25" fill="#DFD" stroke="none" stroke-width="2" id="o_0_0_1" class="o"></rect><text x="605" y="159" font-size="16" fill="black">-4</text><rect x="600" y="172" height="25" width="25" fill="#DFD" stroke="#0A0" stroke-width="2" id="o_0_1_1" class="o"></rect><text x="605" y="187" font-size="16" fill="black">-7</text><rect x="600" y="200" height="25" width="25" fill="#DFD" stroke="none" stroke-width="2" id="o_0_2_1" class="o"></rect><text x="605" y="215" font-size="16" fill="black">-4</text><rect x="628" y="144" height="25" width="25" fill="#DFD" stroke="none" stroke-width="2" id="o_1_0_1" class="o"></rect><text x="633" y="159" font-size="16" fill="black">-5</text><rect x="628" y="172" height="25" width="25" fill="#DFD" stroke="none" stroke-width="2" id="o_1_1_1" class="o"></rect><text x="633" y="187" font-size="16" fill="black">-3</text><rect x="628" y="200" height="25" width="25" fill="#DFD" stroke="none" stroke-width="2" id="o_1_2_1" class="o"></rect><text x="633" y="215" font-size="16" fill="black">-6</text><rect x="656" y="144" height="25" width="25" fill="#DFD" stroke="none" stroke-width="2" id="o_2_0_1" class="o"></rect><text x="661" y="159" font-size="16" fill="black">-2</text><rect x="656" y="172" height="25" width="25" fill="#DFD" stroke="none" stroke-width="2" id="o_2_1_1" class="o"></rect><text x="661" y="187" font-size="16" fill="black">-1</text><rect x="656" y="200" height="25" width="25" fill="#DFD" stroke="none" stroke-width="2" id="o_2_2_1" class="o"></rect><text x="661" y="215" font-size="16" fill="black">2</text><text x="520" y="470" font-size="16" fill="black">toggle movement</text><rect x="500" y="450" height="30" width="150" fill="rgba(200, 200, 200, 0.1)" stroke="black" stroke-width="2" style="cursor:pointer;"></rect><line x1="10" y1="96" x2="440" y2="40" stroke="black" stroke-width="1" class="ll"></line><line x1="10" y1="177" x2="440" y2="121" stroke="black" stroke-width="1" class="ll"></line><line x1="91" y1="96" x2="521" y2="40" stroke="black" stroke-width="1" class="ll"></line><line x1="91" y1="177" x2="521" y2="121" stroke="black" stroke-width="1" class="ll"></line><line x1="10" y1="312" x2="440" y2="144" stroke="black" stroke-width="1" class="ll"></line><line x1="10" y1="393" x2="440" y2="225" stroke="black" stroke-width="1" class="ll"></line><line x1="91" y1="312" x2="521" y2="144" stroke="black" stroke-width="1" class="ll"></line><line x1="91" y1="393" x2="521" y2="225" stroke="black" stroke-width="1" class="ll"></line><line x1="10" y1="528" x2="440" y2="248" stroke="black" stroke-width="1" class="ll"></line><line x1="10" y1="609" x2="440" y2="329" stroke="black" stroke-width="1" class="ll"></line><line x1="91" y1="528" x2="521" y2="248" stroke="black" stroke-width="1" class="ll"></line><line x1="91" y1="609" x2="521" y2="329" stroke="black" stroke-width="1" class="ll"></line></g></svg>
