<?xml version="1.0" encoding="UTF-8" standalone="no"?>
<svg xmlns:rdf="http://www.w3.org/1999/02/22-rdf-syntax-ns#" xmlns="http://www.w3.org/2000/svg" height="61.302mm" width="112.89mm" version="1.1" xmlns:cc="http://creativecommons.org/ns#" xmlns:dc="http://purl.org/dc/elements/1.1/" viewBox="0 0 399.99999 217.2124">
<g transform="translate(200 -856.36)">
<g fill="#6e6e6e">
<rect style="color-rendering:auto;color:#000000;isolation:auto;mix-blend-mode:normal;shape-rendering:auto;solid-color:#000000;image-rendering:auto" height="200" width="1" y="856.36" x="0"/>
<rect style="color-rendering:auto;color:#000000;isolation:auto;mix-blend-mode:normal;shape-rendering:auto;solid-color:#000000;image-rendering:auto" transform="rotate(90)" height="400" width="1" y="-200" x="1047.4"/>
<text style="word-spacing:0px;letter-spacing:0px" line-height="125%" font-size="15px" y="1073.3622" x="-4.2680664" font-family="sans-serif" xml:space="preserve"><tspan y="1073.3622" x="-4.2680664">0</tspan></text>
<text style="word-spacing:0px;letter-spacing:0px" xml:space="preserve" font-size="15px" y="869.59851" x="107.67126" font-family="sans-serif" line-height="125%"><tspan x="107.67126" y="869.59851">μ=0, σ<tspan style="baseline-shift:super" font-size="65%">2</tspan>=1.0</tspan><tspan x="107.67126" y="888.34851">μ=0, σ<tspan style="baseline-shift:super" font-size="65%">2</tspan>=0.2</tspan></text>
</g>
<path d="m69 865.07h30" stroke="#dcdcdc" stroke-width="2" fill="none"/>
<path style="color-rendering:auto;color:#000000;isolation:auto;mix-blend-mode:normal;shape-rendering:auto;solid-color:#000000;image-rendering:auto" stroke-dasharray="3, 3" d="m71 885.07h30" stroke="#dcdcdc" fill="none"/>
</g>
<g stroke="#dcdcdc">
<rect style="color-rendering:auto;color:#000000;isolation:auto;mix-blend-mode:normal;shape-rendering:auto;solid-color:#000000;image-rendering:auto" height="198.85" width="398.85" y="-295.41" x="-335.07" stroke-width="1.1497" fill="#6e6e6e"/>
<path style="color-rendering:auto;color:#000000;isolation:auto;mix-blend-mode:normal;shape-rendering:auto;solid-color:#000000;image-rendering:auto" d="m0.93018 188.41c22.738 0.041 45.583 0.083 68.185-2.294 18.119-2.3429 36.578-8.7262 51.603-19.841 21.987-15.162 37.829-37.867 60.836-51.635 14.889-10.025 34.308-4.774 47.071 6.1696 24.477 19.717 44.195 46.7 74.484 58.168 18.819 7.5614 39.798 8.5316 59.986 9.0724 12.194 0.2324 24.605 0.2509 36.685 0.3587" stroke-width="2" fill="none"/>
<path style="color-rendering:auto;color:#000000;isolation:auto;mix-blend-mode:normal;shape-rendering:auto;solid-color:#000000;image-rendering:auto" stroke-dasharray="3, 3" d="m0.93018 188.44c40.845-0.2638 81.712 0.5549 122.54-0.4657 11.923 0.093 23.462-6.241 28.88-17.011 12.726-23.861 16.996-51.016 22.995-77.098 5.8126-25.381 9.2321-51.566 18.743-75.924 1.1351-3.9874 6.1929-9.9217 9.7772-4.7024 8.431 14.164 10.433 31.065 14.418 46.83 7.7895 34.256 12.632 69.518 25.739 102.3 4.7474 12.262 14.351 24.375 28.529 25.13 26.215 1.8869 52.564 0.5175 78.833 0.9387h48.393" fill="none"/>
</g>
</svg>
